<?xml version="1.0" encoding="UTF-8"?>
<svg id="Layer_1" data-name="Layer 1" xmlns="http://www.w3.org/2000/svg" viewBox="0 0 745.55 641.06">
  <defs>
    <style>
      .cls-1 {
        fill: #fff;
      }
    </style>
  </defs>
  <path class="cls-1" d="M133.74,641.06c-8.96,0-16.94-2.66-23.95-7.98-7-5.32-11.62-12.18-13.86-20.58L1,270.54c-2.24-8.4-.7-15.96,4.62-22.68,5.32-6.72,12.46-10.08,21.42-10.08H195.08L350.51,10.92c2.8-3.36,5.88-6.02,9.24-7.98,3.36-1.96,7.28-2.94,11.76-2.94s8.4,.98,11.76,2.94c3.36,1.96,6.44,4.62,9.24,7.98l154.59,226.85h172.24c8.4,0,15.26,3.36,20.58,10.08,5.32,6.72,6.86,14.28,4.62,22.68l-95.78,341.95c-2.24,8.4-6.86,15.26-13.86,20.58-7,5.32-14.98,7.98-23.95,7.98H133.74Zm8.4-50.41h460.42l84.86-302.46H58.13l84.02,302.46Zm114.26-352.87h229.37l-114.26-168.04-115.1,168.04Zm-114.26,352.87h0Z"/>
</svg>